<svg xmlns="http://www.w3.org/2000/svg" width="118" height="46.441" viewBox="0 0 118 46.441"><path d="M69.845,102.343a11.4,11.4,0,1,1,11.4-11.4,11.4,11.4,0,0,1-11.4,11.4m0-24.243A12.846,12.846,0,1,0,82.69,90.947,12.844,12.844,0,0,0,69.845,78.1" transform="translate(-57 -78.1)" fill="#4b1e78"/><path d="M85.956,100.417a.642.642,0,0,1-.877.234l-1.566-.906v-.739l.642-.37,1.566.9a.644.644,0,0,1,.234.877m-3.523-2.033-.737.426-.737-.426v-.852l.737-.426.737.426Zm-1.379-4.7a.641.641,0,1,1,1.282,0v1.81l-.64.37-.642-.37ZM79.88,99.747l-1.566.9a.642.642,0,1,1-.642-1.111l1.566-.9.64.37v.742Zm11.152,3.383-1.866-2.177a.3.3,0,0,0-.081-.068.321.321,0,0,0-.3-.011.993.993,0,0,1-1.4-.712h0a2.507,2.507,0,0,0-1.219-1.72l-.836-.482,4.749-2.741L89.488,94.2l-5.335,3.081-.642-.37V96.17l5.335-3.081-.588-1.019-4.749,2.741v-.965a2.519,2.519,0,0,0-.881-1.916.993.993,0,0,1,.081-1.571.32.32,0,0,0,.14-.266.384.384,0,0,0-.016-.1l-.953-2.7a.2.2,0,0,0-.189-.135.2.2,0,0,0-.187.135l-.953,2.7a.323.323,0,0,0-.018.1.32.32,0,0,0,.14.266h0a.991.991,0,0,1,.083,1.571,2.519,2.519,0,0,0-.881,1.916v.965L75.124,92.07l-.588,1.019,5.337,3.081v.742l-.64.37L73.9,94.2l-.588,1.019,4.749,2.741-.836.482A2.518,2.518,0,0,0,76,100.162h0a.985.985,0,0,1-.48.676,1,1,0,0,1-.924.036.321.321,0,0,0-.3.011.3.3,0,0,0-.081.068l-1.866,2.177a.2.2,0,0,0,.187.327l2.817-.527a.317.317,0,0,0,.259-.291.993.993,0,0,1,1.319-.856,2.5,2.5,0,0,0,2.1-.2l.836-.48v5.484h1.177v-6.162l.642-.37.64.37v6.162H83.5v-5.484l.834.48a2.525,2.525,0,0,0,2.1.2.993.993,0,0,1,1.319.856.321.321,0,0,0,.16.255.278.278,0,0,0,.1.036l2.817.527a.2.2,0,0,0,.212-.095.183.183,0,0,0-.011-.232" transform="translate(-68.851 -85.11)" fill="#4b1e78"/><path d="M465.264,94.062h-4.287V85.49H457.06v22.361h3.917V98.033h4.287v9.818h4V85.49h-4Z" transform="translate(-366.889 -83.824)" fill="#4b1e78"/><path d="M193.211,85.49,190.254,94.2l-2.678-8.711H183.67L188.016,99.2v8.651h4.35V98.757l4.506-13.267Z" transform="translate(-155.119 -83.824)" fill="#4b1e78"/><path d="M314.44,96.126,312.263,85.49H306.15v22.361h3.5V91l2.993,14.653h3.273l2.655-14.892v17.094h4.111V85.49h-6.372Z" transform="translate(-249.993 -83.824)" fill="#4b1e78"/><path d="M524.272,98.921l1.666-10,1.618,10ZM529.3,85.49h-6.056l-4.086,22.361h3.624l.866-5.2h4.508l.841,5.2h3.994Z" transform="translate(-414.992 -83.824)" fill="#4b1e78"/><path d="M392.564,98.921l1.666-10,1.618,10ZM391.539,85.49l-4.089,22.361h3.624l.868-5.2h4.508l.841,5.2h3.992l-3.69-22.361Z" transform="translate(-312.969 -83.824)" fill="#4b1e78"/><path d="M241.646,98.921l1.666-10,1.616,10ZM240.619,85.49l-4.089,22.361h3.624l.868-5.2h4.508l.841,5.2h3.992l-3.69-22.361Z" transform="translate(-196.065 -83.824)" fill="#4b1e78"/><g transform="translate(15.601 29.72)"><path d="M216.6,264.71c2.52-.16,4.992-.041,8.047-.065-2.536-.223-5.592-.083-9.158-.279,2.04-.045,4.454.043,5.7.09,1.609-.043,4.49.036,6.807.072.023-.072-.437-.032-.618-.056.126-.14,1.048-.032,1.24-.149-1.246-.142-2.748-.21-4.077-.313.174-.081,1.05.05,1.24-.027-1.769-.192-4.17-.11-6.192-.288-.7-.061-1.217-.194-1.857-.228-2.173-.126-4.4,0-6.818-.029-3.113,0-6.552-.043-10.044.027.243-.092,1.233,0,1.488-.083-2.745-.056-5.459-.056-8.556.014l-8.06.167c-2.975.09-5.9.176-9.052.27l-4.839.079-24.823.886c-2.362.05-4.826.108-7.086.255l-5.578.471c-.836.081-1.792.131-2.968.347a38.666,38.666,0,0,0-3.814.681c.108.036-.221.007,0,0-.778.144-.4.313-1.208.476.023.059.419-.029.5.009-.4.1-1.037.277-.349.275-.37.1.2.149.329.142,1.264-.068.494.437.843.527,4.745.243,8.042-.462,13.282-.631,3.041-.137,6.552-.412,9.908-.514,3.947-.169,8.8-.374,13-.552,2.529-.095,5.184-.2,7.675-.291,2.042-.106,4.488-.162,6.311-.216,3.8-.135,7.877-.442,11.876-.516l7.551-.113c-.02-.038-.225-.023-.372-.025,1.325.043,2.369-.156,4.332-.1-.938.131.336.054.992.023,3.108-.151,7.188-.14,9.9-.334l.5.07c.14,0,.07-.034,0-.034h-.124c-.023-.027.047-.032.124-.032a33.144,33.144,0,0,0,3.958-.007" transform="translate(-126.217 -251.308)" fill="#7d6099" fill-rule="evenodd"/><g transform="translate(5.144 0)"><path d="M163.214,222.823a4.8,4.8,0,0,0,.113,1.578,2.254,2.254,0,0,1-1.246.618.977.977,0,0,1-.762-.268,3.128,3.128,0,0,1-.063-1.2c.119-1.794.751-4.675,1.014-6.1.025-.14-.165-.23-.246-.138a42.321,42.321,0,0,0-5.186,6.586,6.954,6.954,0,0,1-1.219.5,1.617,1.617,0,0,1-.721-.482,10.182,10.182,0,0,0-.054-1.068c-.131-1.316.041-3.9-.106-4.828-.016-.1-.167-.133-.268-.02-1.341,2.263-2.865,4.839-4,6.633a1.887,1.887,0,0,1-.854.516c-.289-.032-.685-.735-.55-.958.935-1.528.992-1.481,2.513-3.926,1.361-2.186,2.292-3.717,2.6-4.4.131-.293.588-.435.969-.521a4.012,4.012,0,0,1,.94.392c.345,1.368.02,4.314.252,5.876.029.169.165.192.279.068,1.65-1.925,4.2-4.618,5.806-6.442a3.361,3.361,0,0,1,1.4-.372,1.831,1.831,0,0,1,.676.85,28.694,28.694,0,0,0-1.289,7.113" transform="translate(-149.039 -213.756)" fill="#7d6099"/><path d="M266.163,216.911a21.025,21.025,0,0,0,3.96-2.646,2.862,2.862,0,0,1,.762.077.931.931,0,0,1,.264.624c-.539.609-2.93,1.69-3.825,2.234-.083.041-.086.1-.034.167a7.951,7.951,0,0,0,3.081,2.157.852.852,0,0,1-.1.467,4.136,4.136,0,0,1-1.47.57c-1.3-1.219-2.141-2.006-3.063-2.824a.132.132,0,0,0-.189.045,15.168,15.168,0,0,0-.787,2.443,2.9,2.9,0,0,1-1.26.473c-.205-.052-.787-.228-.879-.392a32.456,32.456,0,0,0,2.542-5.509c1.082-2.77,1.5-3.978,1.258-4.361a5.613,5.613,0,0,1,1.6-.476,1.783,1.783,0,0,1,.609.561c-.868,1.873-1.591,3.5-2.682,6.2a.166.166,0,0,0,.221.192" transform="translate(-237.02 -209.96)" fill="#7d6099"/><path d="M306.821,227.073c1.1-.025,2.391.165,2.509.829.156,1.055-2.071,2.583-4.85,2.164a2.764,2.764,0,0,0-.5,1.835c.052.345.349.586.9.563a12.151,12.151,0,0,0,6.257-2.651c.1.1.065.169-.09.338-.282.3-.854.649-.929.992a11.1,11.1,0,0,1-6.194,2.612c-1.156.036-1.657-.354-1.726-1.057-.167-1.666,1.521-4.152,3.5-5.457a4.562,4.562,0,0,1,1.116-.169m-2.134,2.572c1.355-.029,3.241-.676,3.165-1.436-.036-.37-.978-.442-1.618-.4a7.932,7.932,0,0,0-1.546,1.837" transform="translate(-267.67 -223.214)" fill="#7d6099"/><path d="M368.23,219.882c-.76.917-2.5,3.034-2.583,3.685a2.816,2.816,0,0,1-1.253.545,2.392,2.392,0,0,1-.721-.43,22.277,22.277,0,0,1-.627-3.4c-.108-1.073-.185-1.6-.261-2.254-.007-.158-.124-.212-.252-.1-1.452,1.589-3.976,3.978-5.8,6.034a4.291,4.291,0,0,1-1.5.365c-.379-.27-.453-.769-.512-1.361-.187-1.871,1.386-5.5,1.267-6.705a.548.548,0,0,1,.092-.336,3.08,3.08,0,0,1,1.1-.525,1.022,1.022,0,0,1,.618.654,10.554,10.554,0,0,1-.667,2.89,9.972,9.972,0,0,0-.642,3.131c.009.092.106.126.2.032a35.381,35.381,0,0,0,5.5-5.768,4.707,4.707,0,0,1,1.555-.534,1.989,1.989,0,0,1,.645.412c.072.721.108,2.216.293,4.066a7.655,7.655,0,0,0,.257,1.375c.043.156.174.158.264.061,1.548-1.871,3.888-4.56,5.222-6.207.286-.156.361-.334.73-.4a.823.823,0,0,1,.593.394,35.427,35.427,0,0,1-3.53,4.377" transform="translate(-308.354 -213.949)" fill="#7d6099"/><path d="M463.03,226.129a26.426,26.426,0,0,0-.068,3.219,1.651,1.651,0,0,0,.092.48c.038.092.11.128.18.032a36.617,36.617,0,0,1,4.844-4.4,2.98,2.98,0,0,1,1.113.228,25.418,25.418,0,0,0-5.427,5.648,4.14,4.14,0,0,1-1.6.572,4.962,4.962,0,0,1-.667-2.159,21.606,21.606,0,0,1-.034-2.4c-.011-.212-.694.415-.8.264-.065-.09.1-.41.108-.6a10.413,10.413,0,0,1,1.391-1.21,2.66,2.66,0,0,1,.852.223Z" transform="translate(-390.408 -221.966)" fill="#7d6099"/><path d="M530.451,223.816a1.282,1.282,0,0,1,.126.48,2.066,2.066,0,0,1-1.014.582,2.647,2.647,0,0,0-1.244-.428,1.625,1.625,0,0,0-.719.187,1.264,1.264,0,0,0-.726,1.109c.029.288.2.4,1.406.453,1.262.07,1.966.3,2.031.96.137,1.368-2.258,3.205-5.119,3.237-1.192.014-1.625-.088-1.747-.464-.131-.4.126-1.026.748-1.938a2,2,0,0,1,.938.007,2.035,2.035,0,0,0-.322,1.17c.05.316.358.435,1.01.421,1.566-.034,2.7-.965,2.608-1.909-.032-.327-.252-.437-1.485-.469-1.235-.05-1.695-.214-1.745-.715-.092-.924,1.984-2.939,3.471-2.971a6.69,6.69,0,0,1,1.783.289" transform="translate(-439.032 -220.469)" fill="#7d6099"/><path d="M425.643,227.162a2.236,2.236,0,0,1,.539-.284,1.348,1.348,0,0,1,.678.246,11.032,11.032,0,0,0-1.465,4.035c-.009.261.11.365.361.376.167.007.374-.016.748-.356a.272.272,0,0,1,.061.21c-.036.126.009.065-.061.149-.183.221-.014.34-.214.552a2.423,2.423,0,0,1-1.812.708.691.691,0,0,1-.613-.543,3.292,3.292,0,0,1,.189-1.733c.038-.081-.029-.167-.122-.072a7.245,7.245,0,0,1-4.337,2.52.979.979,0,0,1-.931-.854c-.1-1.388.9-3.347,3.394-4.765a4.1,4.1,0,0,1,2.125-.514,4.337,4.337,0,0,1,1.458.327m-5.132,4.08c.05.248.358.307.534.3.8,0,2.606-1.3,3.931-3.629a1.293,1.293,0,0,0-1.064-.46c-1.111.023-3.708,2.234-3.4,3.784" transform="translate(-357.888 -223.03)" fill="#7d6099"/><path d="M497.415,224.582c1.1-.025,2.076.14,2.193.807.156,1.055-1.564,3.09-4.925,2.682a1.974,1.974,0,0,0-.183,1.44.791.791,0,0,0,.865.582,7.312,7.312,0,0,0,3.361-.9c.131.108-.144.248-.135.325s.185.072,0,.216a9.579,9.579,0,0,1-4.233,1.526c-.953.02-1.492-.34-1.562-1.041-.167-1.666,1.436-4.062,3.417-5.367a3.427,3.427,0,0,1,1.2-.266m-2.466,3c1.936-.086,3.183-1.1,3.106-1.859-.036-.37-.669-.467-1.312-.424a12.092,12.092,0,0,0-1.794,2.283" transform="translate(-415.309 -221.284)" fill="#7d6099"/><path d="M227.942,233.973h0a3.465,3.465,0,0,1-1.287.582c-.18,0-.325-.147-.352-.412-.119-1.2.96-3.365,1.654-4.7a1.4,1.4,0,0,0-.7-.252,4.093,4.093,0,0,0-.742.376,4.106,4.106,0,0,0-1.2-.336,4.84,4.84,0,0,0-2.3.568c-2.788,1.5-3.913,3.922-3.773,5.333.05.5.735.629,1.048.631,1.19.007,3.011-1.066,4.456-2.615.095-.1.219-.009.178.074a3.53,3.53,0,0,0-.192,1.823c.106.365.3.568.588.586A5.284,5.284,0,0,0,228.2,234.5h0a.485.485,0,0,0,.237-.41c.065-.2.588-.613.5-.811,0,0-.757.534-1,.692m-6.279.415a.41.41,0,0,1-.5-.318c-.149-1.461,2.015-4.154,3.787-4.24a1.812,1.812,0,0,1,1.026.543,9.435,9.435,0,0,1-4.314,4.014" transform="translate(-203.416 -224.856)" fill="#7d6099"/></g></g></svg>