<svg xmlns="http://www.w3.org/2000/svg" xmlns:xlink="http://www.w3.org/1999/xlink" width="92" height="92" viewBox="0 0 92 92">
  <defs>
    <linearGradient id="linear-gradient" x1="-0.055" y1="-0.534" x2="1.253" y2="1.903" gradientUnits="objectBoundingBox">
      <stop offset="0" stop-color="#8d6dac"/>
      <stop offset="0.078" stop-color="#9c65a6"/>
      <stop offset="0.269" stop-color="#bf569a"/>
      <stop offset="0.333" stop-color="#c9618f"/>
      <stop offset="0.445" stop-color="#e37e72"/>
      <stop offset="0.492" stop-color="#f18d65"/>
      <stop offset="0.533" stop-color="#ee7e55"/>
      <stop offset="0.592" stop-color="#ec7147"/>
      <stop offset="0.662" stop-color="#eb693e"/>
      <stop offset="0.775" stop-color="#eb673c"/>
    </linearGradient>
  </defs>
  <g id="Group_28" data-name="Group 28" transform="translate(-576 -3671)">
    <circle id="Ellipse_19" data-name="Ellipse 19" cx="46" cy="46" r="46" transform="translate(576 3671)" fill="url(#linear-gradient)"/>
    <g id="Group_19" data-name="Group 19" transform="translate(-1110.939 796.182)">
      <path id="Path_56" data-name="Path 56" d="M1738.934,2911.221a15.979,15.979,0,1,0-27.541,11.022,16.072,16.072,0,0,1,4.306,11.126v.686h14.516v-.683a16.973,16.973,0,0,1,4.56-11.4A15.9,15.9,0,0,0,1738.934,2911.221Z" transform="translate(9.671 8.488)" fill="none" stroke="#fff" stroke-linecap="round" stroke-linejoin="round" stroke-width="2"/>
      <line id="Line_5" data-name="Line 5" x2="12.783" transform="translate(1726.235 2946.677)" fill="none" stroke="#fff" stroke-linecap="round" stroke-linejoin="round" stroke-width="2"/>
      <line id="Line_6" data-name="Line 6" x2="7.057" transform="translate(1729.098 2950.734)" fill="none" stroke="#fff" stroke-linecap="round" stroke-linejoin="round" stroke-width="2"/>
      <line id="Line_7" data-name="Line 7" y1="9.427" transform="translate(1732.616 2890.818)" fill="none" stroke="#fff" stroke-linecap="round" stroke-linejoin="round" stroke-width="2"/>
      <line id="Line_8" data-name="Line 8" y1="7.032" x2="7.186" transform="translate(1744.284 2896.691)" fill="none" stroke="#fff" stroke-linecap="round" stroke-linejoin="round" stroke-width="2"/>
      <line id="Line_9" data-name="Line 9" x2="9.891" transform="translate(1753.557 2919.872)" fill="none" stroke="#fff" stroke-linecap="round" stroke-linejoin="round" stroke-width="2"/>
      <line id="Line_10" data-name="Line 10" x2="7.109" y2="6.877" transform="translate(1748.611 2934.863)" fill="none" stroke="#fff" stroke-linecap="round" stroke-linejoin="round" stroke-width="2"/>
      <line id="Line_11" data-name="Line 11" x1="7.032" y2="6.954" transform="translate(1709.125 2934.786)" fill="none" stroke="#fff" stroke-linecap="round" stroke-linejoin="round" stroke-width="2"/>
      <line id="Line_12" data-name="Line 12" x1="9.814" transform="translate(1701.939 2918.636)" fill="none" stroke="#fff" stroke-linecap="round" stroke-linejoin="round" stroke-width="2"/>
      <line id="Line_13" data-name="Line 13" x1="6.877" y1="6.954" transform="translate(1712.989 2896.922)" fill="none" stroke="#fff" stroke-linecap="round" stroke-linejoin="round" stroke-width="2"/>
    </g>
  </g>
</svg>
