<svg xmlns="http://www.w3.org/2000/svg" xmlns:xlink="http://www.w3.org/1999/xlink" width="92" height="92" viewBox="0 0 92 92">
  <defs>
    <linearGradient id="linear-gradient" x1="-0.055" y1="-0.534" x2="1.253" y2="1.903" gradientUnits="objectBoundingBox">
      <stop offset="0" stop-color="#8d6dac"/>
      <stop offset="0.078" stop-color="#9c65a6"/>
      <stop offset="0.269" stop-color="#bf569a"/>
      <stop offset="0.333" stop-color="#c9618f"/>
      <stop offset="0.445" stop-color="#e37e72"/>
      <stop offset="0.492" stop-color="#f18d65"/>
      <stop offset="0.533" stop-color="#ee7e55"/>
      <stop offset="0.592" stop-color="#ec7147"/>
      <stop offset="0.662" stop-color="#eb693e"/>
      <stop offset="0.775" stop-color="#eb673c"/>
    </linearGradient>
  </defs>
  <g id="Group_24" data-name="Group 24" transform="translate(-592 -3854)">
    <circle id="Ellipse_22" data-name="Ellipse 22" cx="46" cy="46" r="46" transform="translate(592 3854)" fill="url(#linear-gradient)"/>
    <g id="Group_22" data-name="Group 22" transform="translate(-274.021 474.96)">
      <g id="Group_21" data-name="Group 21" transform="translate(885 3398)">
        <path id="Path_60" data-name="Path 60" d="M1335.563,3065.784a23.1,23.1,0,0,0,3.03-1.567l3.277,3.281,7.713-7.713-3.281-3.281a23.358,23.358,0,0,0,2.826-6.821h4.64v-10.9h-4.64a23.413,23.413,0,0,0-2.826-6.824l3.281-3.278-7.713-7.713-3.277,3.281a23.422,23.422,0,0,0-6.824-2.825v-4.64h-10.9v4.64a23.357,23.357,0,0,0-6.82,2.825l-3.281-3.281-7.713,7.713,3.281,3.278a23.1,23.1,0,0,0-1.388,2.621" transform="translate(-1299.726 -3016.78)" fill="none" stroke="#fff" stroke-width="2"/>
        <path id="Path_61" data-name="Path 61" d="M1352.19,3078.868a15.633,15.633,0,1,0-21.11-21.845" transform="translate(-1317.705 -3037.921)" fill="none" stroke="#fff" stroke-width="2"/>
        <line id="Line_25" data-name="Line 25" y1="24.873" x2="24.499" transform="translate(6.2 23.156)" fill="none" stroke="#fff" stroke-width="2"/>
        <path id="Path_62" data-name="Path 62" d="M1356.482,3094.039l.6-12.474-12.474.374" transform="translate(-1326.381 -3058.334)" fill="none" stroke="#fff" stroke-width="2"/>
        <line id="Line_26" data-name="Line 26" y1="11.802" x2="11.577" transform="translate(0 23.38)" fill="none" stroke="#fff" stroke-width="2"/>
        <path id="Path_63" data-name="Path 63" d="M1309.276,3091.9l.224-9.71-9.262.448" transform="translate(-1297.923 -3058.735)" fill="none" stroke="#fff" stroke-width="2"/>
        <line id="Line_27" data-name="Line 27" y1="11.802" x2="11.577" transform="translate(18.449 42.278)" fill="none" stroke="#fff" stroke-width="2"/>
        <path id="Path_64" data-name="Path 64" d="M1360.726,3144.6l.224-9.71-9.262.448" transform="translate(-1330.924 -3092.537)" fill="none" stroke="#fff" stroke-width="2"/>
      </g>
    </g>
  </g>
</svg>
