<svg xmlns="http://www.w3.org/2000/svg" width="373.345" height="42.965" viewBox="0 0 373.345 42.965">
  <g id="Group_55" data-name="Group 55" transform="translate(-36.988 -72.166)">
    <path id="Path_91" data-name="Path 91" d="M113.66,82.811a8.389,8.389,0,0,0-1.116-.653c-.33-.157-.616-.276-.836-.376a.321.321,0,0,0-.476.323c.327,6.508-1.838,10.5-5.9,13.906-3.384,2.837-8,5.345-15.65,6.583h-.039c-.944.151-1.932.282-2.972.392a28.893,28.893,0,0,1-8.739-.39c-7.34-1.577-11.929-6.061-7.979-9.572a.337.337,0,0,0-.424-.525c-4.97,3.64-2.754,6.429-.323,8.588a20.913,20.913,0,0,0,2.238,1.528c7.5,3.986,22.575,3.484,33.817.2.243-.072.489-.147.73-.213V102.6c11.98-3.7,20.088-11.015,7.665-19.785" fill="#113e69"/>
    <path id="Path_92" data-name="Path 92" d="M75.613,73.3c11.2,3.154,16.854,6.177,20.518,9.711,3.428,3.309,5.256,6.967,2.3,11.568-3.624,5.641-19.694,7.642-25.59,2.285a.336.336,0,0,0-.478.473c3.5,3.95,8.834,4.291,13.563,4.282,25.531-.061,32.925-31.665-7.626-29.334a19.006,19.006,0,0,0-2.656.358.331.331,0,0,0-.033.657" fill="#113e69"/>
    <path id="Path_93" data-name="Path 93" d="M42.67,84.86c10.852-3.45,18.752-4.493,26.568-4.372,7.314.116,14.63,1.15,21.028,4.894,7.133,4.174,3.421,12.308-8.95,12.276a.338.338,0,1,0-.015.675c8.165.392,11.434-1.791,13.851-3.986C101.687,88.414,92,80.6,79.918,76.891c-12.39-3.8-28.508-3.838-36.889,6.079a3.6,3.6,0,0,0-.557.87c-.1.232-.159.424-.218.575a.323.323,0,0,0,.416.445" fill="#113e69"/>
    <path id="Path_94" data-name="Path 94" d="M51.527,91.287c3.8-3.193,9.164-5.966,18.659-6.977,12.217-1.3,22.037,5.235,16.72,9.964a.337.337,0,0,0,.424.524c4.97-3.642,2.754-6.428.321-8.589-6.286-5.59-23.542-5.384-36.053-1.726C40.1,87.841,31.782,94.5,40.818,102.6h0a26.117,26.117,0,0,0,2.385,1.883,8.65,8.65,0,0,0,1.1.7,5.44,5.44,0,0,0,.835.375.361.361,0,0,0,.5-.373,23.189,23.189,0,0,1,.008-2.589h-.018l.018-.012a15.009,15.009,0,0,1,5.888-11.3" fill="#113e69"/>
    <path id="Path_95" data-name="Path 95" d="M114.192,102.437c-.149.047-.3.094-.447.149h-.034c-10.6,3.333-18.387,4.341-26.088,4.223-6.843-.108-13.69-1.022-19.782-4.207h-.006c-.418-.22-.83-.447-1.239-.687-7.134-4.173-3.419-12.307,8.947-12.278a.336.336,0,1,0,.018-.672c-8.165-.395-11.435,1.788-13.853,3.983-3.293,2.993-2.464,6.463.716,9.654h.01c3.13,3.124,8.528,5.968,14.51,7.8,12.39,3.8,28.508,3.839,36.889-6.078a3.808,3.808,0,0,0,.559-.871c.1-.233.157-.426.218-.577a.377.377,0,0,0,0-.278.325.325,0,0,0-.423-.165" fill="#113e69"/>
    <path id="Path_96" data-name="Path 96" d="M81.25,113.993c-11.2-3.155-16.856-6.176-20.518-9.71a19.74,19.74,0,0,1-1.565-1.681v0c-2.342-2.869-3.2-6.049-.74-9.883,3.627-5.641,19.7-7.642,25.59-2.287a.337.337,0,0,0,.479-.475C81,86,75.664,85.664,70.933,85.673,57.4,85.707,48.968,94.6,50.062,102.6c.969,7.1,9.438,13.5,28.5,12.406a19.535,19.535,0,0,0,2.653-.357.332.332,0,0,0,.036-.658" fill="#113e69"/>
    <path id="Path_97" data-name="Path 97" d="M150.218,97.05a7.188,7.188,0,0,1-7.125,4.584c-4.7,0-6.683-2.663-5.633-7.6s4.169-7.64,8.873-7.64c3.683,0,5.439,1.879,5.048,5.367H163.92c1.322-8.071-4.213-12.618-16.046-12.618-12.617,0-20.125,5.1-22.208,14.891s3.262,14.889,15.877,14.889c11.286,0,18.547-4.115,21.332-11.873Z" fill="#113e69"/>
    <path id="Path_98" data-name="Path 98" d="M356.212,94.033c-1.049,4.939-4.164,7.6-8.863,7.6s-6.685-2.663-5.635-7.6,4.171-7.64,8.873-7.64,6.672,2.7,5.625,7.64m-3.679-14.889c-12.618,0-20.126,5.094-22.207,14.889s3.26,14.889,15.877,14.889,20.126-5.092,22.207-14.889-3.262-14.889-15.877-14.889" fill="#113e69"/>
    <path id="Path_99" data-name="Path 99" d="M396.37,79.89l-3.462,16.3-7.467-16.3H372.471l-6.011,28.287H376.8L380.326,91.6l8.346,16.572h12.3l6.016-28.287Z" fill="#113e69"/>
    <path id="Path_100" data-name="Path 100" d="M319.574,89.527c-.433,2.036-2.077,2.587-5.093,2.587h-6.387l1.073-5.056h6.114c3.213,0,4.752.316,4.293,2.469m12.541-2.038c.583-2.741-.1-4.895-1.944-6.15-1.569-1.1-4.589-1.45-9.057-1.45h-21.55l-6.011,28.289H304.68l1.832-8.62h6.543c2.7,0,3.571.706,3.357,2.82-.233,2.389-1.059,4.429-.488,5.8h12.184l.092-.43c-1.19-.669-.7-2.981-.027-7.055.525-3.212.506-4.779-2.244-6.031a9.671,9.671,0,0,0,6.186-7.173" fill="#113e69"/>
    <path id="Path_101" data-name="Path 101" d="M298.569,79.89H267.107l-.859,4.038c-1.71-3.319-6.784-4.784-15.312-4.784-11.048,0-16.856,2.627-18.231,9.091-1.008,4.741,1.832,7.6,8.436,8.422l7.973,1.02c2.557.312,3.7,1.02,3.442,2.234-.29,1.371-1.922,2.036-4.86,2.036-3.017,0-4.549-.9-4.429-2.389h-13.28a8.842,8.842,0,0,0-.157,1.332H210.171l.79-3.723h15.4l1.483-6.972h-15.4l.716-3.37h19l1.473-6.935H203.663l-6.011,28.286h30.911l1.306-6.141c.508,4.462,5.4,7,14.557,7,13.006,0,19.869-2.977,21.377-10.067.99-4.662-1.53-7.367-7.569-8.269l-9.689-1.411c-2.738-.39-4.035-.743-3.768-2,.234-1.1,1.771-1.881,4.356-1.881,3.411,0,5.051.941,4.949,2.7h12.735a9.705,9.705,0,0,0,.086-1.06h8.907l-4.49,21.118h10.972l4.488-21.118h10.265Z" fill="#113e69"/>
    <path id="Path_102" data-name="Path 102" d="M187.894,89.527c-.433,2.036-2.077,2.587-5.1,2.587h-6.384l1.073-5.056H183.6c3.213,0,4.752.316,4.293,2.469m12.541-2.038c.583-2.741-.1-4.895-1.945-6.15-1.569-1.1-4.59-1.45-9.056-1.45H167.885l-6.012,28.289H173l1.832-8.62h6.543c2.7,0,3.572.706,3.358,2.82-.236,2.389-1.059,4.429-.489,5.8h12.184l.093-.43c-1.189-.669-.7-2.981-.03-7.055.528-3.212.506-4.779-2.242-6.031a9.665,9.665,0,0,0,6.186-7.173" fill="#113e69"/>
    <path id="Path_103" data-name="Path 103" d="M406.248,104.6v-1.192h.8c.408,0,.842.088.842.565,0,.592-.444.627-.94.627Zm2.246-.592c0-.761-.452-1.1-1.362-1.1h-1.467v3.858h.583V105.1h.671l1.018,1.671h.655l-1.1-1.7a1,1,0,0,0,1-1.061" fill="#113e69"/>
    <path id="Path_104" data-name="Path 104" d="M406.956,107.627a2.788,2.788,0,1,1,2.706-2.795,2.7,2.7,0,0,1-2.706,2.795m0-6.129a3.342,3.342,0,1,0,3.377,3.334,3.338,3.338,0,0,0-3.377-3.334" fill="#113e69"/>
  </g>
</svg>
