<svg xmlns="http://www.w3.org/2000/svg" width="158.965" height="113.792" viewBox="0 0 158.965 113.792">
  <g id="Group_54" data-name="Group 54" transform="translate(-884.047 -36.752)">
    <g id="Group_42" data-name="Group 42">
      <path id="Path_80" data-name="Path 80" d="M943.889,100.882a3.3,3.3,0,0,0,1.273,1.055c.881.434,2.6,1.287,2.747,1.4a6.722,6.722,0,0,1,2.111,2.083,5.773,5.773,0,0,1,.812,3.123,8.351,8.351,0,0,1-.478,2.937,6.862,6.862,0,0,1-1.937,2.906,7.325,7.325,0,0,1-3.356,1.793c-1.49.317-4.136.464-5.654-.245a7.212,7.212,0,0,1-3.37-2.532,8.823,8.823,0,0,1-1.549-4.31,11.169,11.169,0,0,1,1.13-6.332,11.589,11.589,0,0,1,3.686-3.949,24.234,24.234,0,0,1,5.8-2.662c2.24-.549,8.294-1.6,12.328-1.121a40.358,40.358,0,0,1,8.222,1.454c2.038.694,5.813,2.126,7.94,4.383s4.121,5.205,4.252,8.373.261,7.115-2.864,10.368-4.036,4.73-15.316,7.591-12.147,3.6-13.491,4.429-4.209,3.037-4.816,4.249a9.675,9.675,0,0,0-.782,2l.824.521h33.453l2.123-7.419,2.431.087-5.12,19.48H933.636a25.818,25.818,0,0,1,.955-6.379c.912-2.908,2.559-7.07,4.989-9.719a50.958,50.958,0,0,1,8.676-7.806s3.081-2.607,4.077-3.644,3.675-4.008,4.484-7.073,1.391-7,.7-9.547-1.1-4.641-3.008-6.2-.434-.479-1.3-1.026a13.561,13.561,0,0,0-2.314-1.042,13.946,13.946,0,0,0-4.454-.26,4.823,4.823,0,0,0-2.2.866s-.58.436-.608.9A1.975,1.975,0,0,0,943.889,100.882Z" fill="#ec1617"/>
    </g>
    <g id="Group_43" data-name="Group 43">
      <path id="Path_81" data-name="Path 81" d="M1043.012,144.181H1038.3l-18.915-32.655,6.421-6.364s1.487-1.142,2.733-1.967a17.013,17.013,0,0,1,4.944-1.764,20.781,20.781,0,0,1,3.081-.232V99.381h-21.348l-.012,1.834,3.644.014.9.058s1.042.188,1.3.246a3.918,3.918,0,0,1,1.2.593c.448.318.377.549.579,1.1a2.068,2.068,0,0,1,0,1.215,3.418,3.418,0,0,1-.594,1.186c-.173.261-.709.868-.709.868l-16.473,16.423V101.171h5.816V99.436H980.319l-.073-.055v1.805l5.466.013v43h-5.466v1.924h29.639l-.012-1.922h-4.827l.015-20.724,11.889,20.709-4.63.028-.026,1.909h30.718Z" fill="#ec1617"/>
    </g>
    <g id="Group_44" data-name="Group 44">
      <path id="Path_82" data-name="Path 82" d="M952.773,49.671c-1.024,5.411-8.229,8.592-16.093,7.1s-13.41-7.08-12.386-12.492,8.23-8.593,16.092-7.1S953.8,44.26,952.773,49.671Z" fill="#ec1617"/>
    </g>
    <g id="Group_45" data-name="Group 45">
      <path id="Path_83" data-name="Path 83" d="M952.68,50.166c-1.208,5.391-8.494,8.35-16.278,6.609s-13.119-7.523-11.911-12.915,8.495-8.35,16.279-6.609S953.886,44.774,952.68,50.166Z" fill="none"/>
    </g>
    <g id="Group_46" data-name="Group 46">
      <path id="Path_84" data-name="Path 84" d="M979.488,48.932c-1.356,4.164-7.37,5.936-13.424,3.961s-9.863-6.954-8.5-11.117,7.368-5.934,13.423-3.958S980.849,44.772,979.488,48.932Z" fill="#ec1617"/>
    </g>
    <g id="Group_47" data-name="Group 47">
      <path id="Path_85" data-name="Path 85" d="M1000.644,57.158c-1.079,3.315-5.818,4.741-10.584,3.185s-7.75-5.5-6.666-8.813,5.82-4.74,10.583-3.184S1001.726,53.847,1000.644,57.158Z" fill="#ec1617"/>
    </g>
    <g id="Group_48" data-name="Group 48">
      <path id="Path_86" data-name="Path 86" d="M1015.33,69.538c-1.05,2.544-4.856,3.382-8.5,1.873s-5.737-4.791-4.682-7.334,4.859-3.383,8.5-1.874S1016.388,67,1015.33,69.538Z" fill="#ec1617"/>
    </g>
    <g id="Group_49" data-name="Group 49">
      <path id="Path_87" data-name="Path 87" d="M1025.016,82.652c-.9,1.749-3.639,2.13-6.106.851s-3.737-3.729-2.833-5.477,3.64-2.13,6.109-.852S1025.923,80.9,1025.016,82.652Z" fill="#ec1617"/>
    </g>
    <g id="Group_50" data-name="Group 50">
      <path id="Path_88" data-name="Path 88" d="M1029.394,91.773c-.519,1.028-2.07,1.289-3.46.585s-2.1-2.109-1.578-3.135,2.07-1.29,3.46-.587S1029.914,90.744,1029.394,91.773Z" fill="#ec1617"/>
    </g>
    <g id="Group_51" data-name="Group 51">
      <path id="Path_89" data-name="Path 89" d="M909.106,98.51c-13.84,0-25.059,10.788-25.059,24.091s11.219,24.1,25.059,24.1,25.061-10.787,25.061-24.1S922.945,98.51,909.106,98.51Zm4.138,41.5c0,2.718-1.9,4.925-4.236,4.925s-4.239-2.207-4.239-4.925V105.14c0-2.719,1.9-4.924,4.239-4.924s4.236,2.2,4.236,4.924Z" fill="#ec1617"/>
    </g>
    <g id="Group_52" data-name="Group 52">
      <rect id="Rectangle_36" data-name="Rectangle 36" width="1.665" height="1.937" transform="translate(1040.339 144.181)" fill="#ec1617"/>
    </g>
    <g id="Group_53" data-name="Group 53">
      <path id="Path_90" data-name="Path 90" d="M934.024,72.756c-.668,7.606-9.608,13.035-19.967,12.123s-18.213-7.815-17.545-15.421,9.608-13.034,19.967-12.123S934.693,65.15,934.024,72.756Z" fill="#ec1617"/>
    </g>
  </g>
</svg>
